<svg xmlns="http://www.w3.org/2000/svg" viewBox="0 0 260.61 260.61"><defs><style>.cls-1{fill:#f9e4c8;}.cls-2{fill:#323c50;}</style></defs><g id="Layer_2" data-name="Layer 2"><g id="Layer_2-2" data-name="Layer 2"><circle class="cls-1" cx="130.3" cy="130.3" r="130.3"/></g><g id="Layer_3" data-name="Layer 3"><circle class="cls-2" cx="139.56" cy="123.05" r="119.24"/><path class="cls-1" d="M72.58,129.08c-.19,1-1.15,4.32-1.47,5.32H56.23v-.9c2.91-.29,3.17-.45,3.17-3.17v-12.7c0-2.72-.32-2.88-2.88-3.14v-.89h8.57v.89c-2.56.26-2.91.39-2.91,3.14v13c0,1.95.26,2.4,2.08,2.43l2.53,0c1.63,0,2.11-.2,2.85-1a10.82,10.82,0,0,0,2-3.29Z"/><path class="cls-1" d="M111.27,114.49c-2,.13-2.75.64-2.82,2.12,0,.73-.09,2.08-.09,5v3.45c0,3.27-.39,5.76-2.24,7.72a7.92,7.92,0,0,1-5.89,2A8.68,8.68,0,0,1,95,133.37c-1.92-1.47-2.85-3.68-2.85-7.42v-8.16c0-2.88-.25-3.07-2.81-3.3v-.89h8.41v.89c-2.56.16-2.81.42-2.81,3.3v8c0,4.67,2.21,7.23,6,7.23,4.54,0,6-2.81,6-8.13v-3.26c0-2.94-.1-4.16-.16-5-.1-1.44-.83-2-3.2-2.12v-.89h7.68Z"/><path class="cls-1" d="M151.17,114.49c-2,.23-2.72.55-2.81,2,0,1-.1,2.37-.1,5.34v12.83H147L133.35,118v8c0,2.88.1,4.32.16,5.25.06,1.63.86,2.11,3.17,2.3v.9H128.9v-.9c2-.16,2.75-.64,2.88-2.21.1-1,.16-2.46.16-5.37v-8.16a2.76,2.76,0,0,0-.64-2.11c-.61-.8-1.28-1-2.85-1.16v-.89h4.8l13.57,16.09v-7.84c0-3-.06-4.35-.16-5.31-.1-1.44-.83-1.89-3.39-2.05v-.89h7.9Z"/><path class="cls-1" d="M180.68,134.4v-.9c2.08-.26,2.33-.58,1.88-1.79s-1.05-2.85-1.72-4.87h-6.91c-.52,1.45-1,2.69-1.45,4-.7,2.08-.25,2.34,2.37,2.66v.9h-7.39v-.9c2-.26,2.53-.48,3.65-3.36l6.62-16.8,1-.19c2,5.47,4.22,11.52,6.24,17.06,1,2.78,1.31,3,3.58,3.29v.9Zm-3.2-17.06c-1,2.75-2.12,5.66-3.08,8.19h6Z"/><path class="cls-1" d="M224.84,134.65c-.42,0-.77,0-1.19-.06a5.69,5.69,0,0,1-5-2.75c-1.18-1.63-2.34-3.65-3.36-5.28-.64-1-1.06-1.22-2.69-1.22h-1.12v5c0,2.71.36,2.87,2.91,3.13v.9h-8.54v-.9c2.66-.29,2.88-.42,2.88-3.13V117.6c0-2.72-.35-2.82-2.88-3.11v-.89H214c2.34,0,3.9.29,5.12,1.09a4.78,4.78,0,0,1,2.18,4.22c0,2.75-1.76,4.48-4.13,5.5.57,1,1.95,3.14,2.91,4.58a28.76,28.76,0,0,0,2.53,3.29,4.67,4.67,0,0,0,2.33,1.48ZM213,124.25a5.17,5.17,0,0,0,3.52-.92,4.5,4.5,0,0,0,1.76-3.94c0-3.42-2.27-4.67-4.74-4.67a2.91,2.91,0,0,0-1.69.32c-.29.22-.39.54-.39,1.37v7.84Z"/></g></g></svg>